<?xml version="1.0" encoding="iso-8859-1"?>
<!-- Generator: Adobe Illustrator 19.0.0, SVG Export Plug-In . SVG Version: 6.00 Build 0)  -->
<svg fill="#000" version="1.1" id="Layer_1" xmlns="http://www.w3.org/2000/svg" xmlns:xlink="http://www.w3.org/1999/xlink" x="0px" y="0px"
	 viewBox="0 0 160 160" style="enable-background:new 0 0 160 160;" xml:space="preserve">
<g>
	<path d="M41.413,54.176c0,17.587,0,35.18,0,52.771c-13.277,6.975-26.563,13.959-39.849,20.937c0-29.813,0-59.618,0-89.433
		C22.519,27.428,43.478,16.393,64.438,5.365c2.458-1.291,5.064-2.313,7.769-2.942c1.301-0.31,2.617-0.522,3.956-0.647
		c1.328-0.127,2.666-0.168,4.003-0.117c2.941,0.117,5.863,0.643,8.699,1.484c2.824,0.841,5.553,1.982,8.177,3.327
		c1.296,0.694,2.575,1.401,3.808,2.202c0.658,0.434,1.301,0.892,1.897,1.416c0.338,0.296,0.649,0.617,0.921,0.967
		c0.191,0.236,0.357,0.494,0.451,0.773c0.071,0.18,0.107,0.371,0.096,0.557c-0.016,0.239-0.096,0.467-0.194,0.68
		c-0.293,0.587-0.745,1.057-1.222,1.497c-1.435,1.306-3.111,2.305-4.826,3.208c-15.746,8.289-31.496,16.572-47.246,24.855
		c-0.389,0.205-0.776,0.413-1.17,0.619c-4.586,2.408-7.293,4.9-8.143,7.452C41.04,51.836,41.04,53,41.413,54.176z"/>
	<line x1="41.413" y1="54.176" x2="41.413" y2="106.947"/>
	<path d="M158.792,121.438c-21.786,11.474-43.578,22.933-65.361,34.397c-4.455,2.343-9.039,3.756-13.732,4.243
		c-8.056,0.834-16.482-1.068-25.273-5.688c-4.289-2.257-7.343-4.469-9.164-6.64c-2.842-1.864-4.127-4.486-3.849-7.848
		c0-28.573,0-57.154,0-85.729c0.996,3.094,4.63,6.297,10.894,9.586c13.913,7.321,26.913,7.803,38.998,1.441
		c21.783-11.461,43.575-22.926,65.363-34.39c0.829-0.435,1.661-0.873,2.49-1.312c0,30.58,0,61.168,0,91.744"/>
	<path d="M41.146,52.764c-0.016-0.229-0.016-0.455,0-0.683"/>
	<line x1="158.792" y1="121.438" x2="159.159" y2="121.246"/>
	<path d="M111.745,12.863c-0.084,3.114-2.895,6.125-8.428,9.035C87.578,30.183,71.83,38.471,56.079,46.757
		c-3.663,1.921-8.741,5.694-4.228,9.653c1.068,0.694,2.176,1.318,3.314,1.916c4.218,2.213,8.709,3.948,13.401,4.725
		c2.699,0.444,5.46,0.575,8.167,0.31c4.092-0.391,8.072-1.68,11.71-3.588c7.77-4.092,15.532-8.178,23.301-12.264
		C111.745,35.959,111.745,24.412,111.745,12.863z"/>
</g>
</svg>
