<?xml version="1.0" encoding="iso-8859-1"?>
<!-- Generator: Adobe Illustrator 19.0.0, SVG Export Plug-In . SVG Version: 6.00 Build 0)  -->
<svg fill="#FFF" version="1.1" id="Layer_1" xmlns="http://www.w3.org/2000/svg" xmlns:xlink="http://www.w3.org/1999/xlink" x="0px" y="0px"
	 viewBox="0 0 207 31.224" style="enable-background:new 0 0 207 31.224;" xml:space="preserve">
<g id="XMLID_93_">
	<path id="XMLID_103_" d="M194.148,14.939v3.301h7.493v3.2c0,2.038-1.657,3.699-3.693,3.699h-21.55
		c-2.035,0-3.694-1.661-3.694-3.699V8.738c0-2.039,1.659-3.697,3.694-3.697h26.895V1.74h-26.895c-3.856,0-6.994,3.14-6.994,6.998
		V21.44c0,3.859,3.138,6.997,6.994,6.997h21.55c3.856,0,6.995-3.138,6.995-6.997v-6.501H194.148z"/>
	<rect id="XMLID_102_" x="120.725" y="1.682" width="3.298" height="26.755"/>
	<path id="XMLID_99_" d="M109.584,1.74H81.041v13.348v1.65v11.355h3.299V16.738h18.839l10.488,12.486l2.526-2.123l-8.705-10.363
		h2.096c3.858,0,6.996-3.135,6.996-6.993V8.738C116.58,4.879,113.442,1.74,109.584,1.74z M113.281,9.745
		c0,2.037-1.66,3.694-3.697,3.694H84.34V5.041h25.244c2.037,0,3.697,1.658,3.697,3.697V9.745z"/>
	<path id="XMLID_96_" d="M70.352,1.74H41.809v26.532h3.3V17.42h25.244c3.858,0,6.997-3.275,6.997-7.305V9.051
		C77.35,5.021,74.211,1.74,70.352,1.74z M74.049,10.116c0,2.21-1.658,4.006-3.696,4.006H45.108V5.041h25.244
		c2.038,0,3.696,1.799,3.696,4.011V10.116z"/>
	<path id="XMLID_95_" d="M30.317,1.74H3.423v3.301h26.894c2.037,0,3.693,1.658,3.693,3.697v1.007c0,2.037-1.656,3.694-3.693,3.694
		H8.766c-3.855,0-6.994,3.136-6.994,6.993v1.008c0,3.859,3.139,6.997,6.994,6.997H35.66v-3.298H8.766
		c-2.037,0-3.692-1.661-3.692-3.699v-1.008c0-2.036,1.655-3.694,3.692-3.694h21.552c3.857,0,6.991-3.135,6.991-6.993V8.738
		C37.309,4.879,34.175,1.74,30.317,1.74z"/>
	<path id="XMLID_94_" d="M152.787,1.74h-10.866c-6.805,0-12.337,5.874-12.337,13.096v13.602h3.298V14.835
		c0-5.403,4.056-9.795,9.039-9.795h10.866c4.983,0,9.037,4.392,9.037,9.795v13.602h3.301V14.835
		C165.125,7.614,159.589,1.74,152.787,1.74z"/>
</g>
</svg>
